<svg width="78" height="78" viewBox="0 0 78 78" fill="none" xmlns="http://www.w3.org/2000/svg">
<g opacity="0.5">
<path d="M0 20C0 8.9543 8.95431 0 20 0H58C69.0457 0 78 8.95431 78 20V58C78 69.0457 69.0457 78 58 78H20C8.9543 78 0 69.0457 0 58V20Z" fill="#FBF1F1"/>
<path d="M0 20C0 8.9543 8.95431 0 20 0H58C69.0457 0 78 8.95431 78 20V58C78 69.0457 69.0457 78 58 78H20C8.9543 78 0 69.0457 0 58V20Z" fill="#FBF1F1"/>
</g>
<path opacity="0.8" d="M37.8008 37.7207L32.4922 36.1387L33.3008 33.4844L38.6094 35.4531L38.4512 29.4062H41.1406L40.9648 35.541L46.1855 33.6074L46.9941 36.2793L41.5977 37.8789L45.0781 42.6426L42.8984 44.2949L39.6289 39.2324L36.4648 44.1719L34.2676 42.5723L37.8008 37.7207Z" fill="#053A34"/>
</svg>
