<svg width="78" height="78" viewBox="0 0 78 78" fill="none" xmlns="http://www.w3.org/2000/svg">
<rect opacity="0.5" width="78" height="78" rx="20" fill="#8F8A8A"/>
<path d="M33.8555 40.6211H36.2988C37.834 40.5977 39.041 40.1934 39.9199 39.4082C40.7988 38.623 41.2383 37.5625 41.2383 36.2266C41.2383 33.2266 39.7441 31.7266 36.7559 31.7266C35.3496 31.7266 34.2246 32.1309 33.3809 32.9395C32.5488 33.7363 32.1328 34.7969 32.1328 36.1211H28.8809C28.8809 34.0938 29.6191 32.4121 31.0957 31.0762C32.584 29.7285 34.4707 29.0547 36.7559 29.0547C39.1699 29.0547 41.0625 29.6934 42.4336 30.9707C43.8047 32.248 44.4902 34.0234 44.4902 36.2969C44.4902 37.4102 44.127 38.4883 43.4004 39.5312C42.6855 40.5742 41.707 41.3535 40.4648 41.8691C41.8711 42.3145 42.9551 43.0527 43.7168 44.084C44.4902 45.1152 44.877 46.375 44.877 47.8633C44.877 50.1602 44.127 51.9824 42.627 53.3301C41.127 54.6777 39.1758 55.3516 36.7734 55.3516C34.3711 55.3516 32.4141 54.7012 30.9023 53.4004C29.4023 52.0996 28.6523 50.3828 28.6523 48.25H31.9219C31.9219 49.5977 32.3613 50.6758 33.2402 51.4844C34.1191 52.293 35.2969 52.6973 36.7734 52.6973C38.3438 52.6973 39.5449 52.2871 40.377 51.4668C41.209 50.6465 41.625 49.4688 41.625 47.9336C41.625 46.4453 41.168 45.3027 40.2539 44.5059C39.3398 43.709 38.0215 43.2988 36.2988 43.2754H33.8555V40.6211Z" fill="#053A34"/>
</svg>
