<svg width="414" height="736" viewBox="0 0 414 736" fill="none" xmlns="http://www.w3.org/2000/svg">
<path d="M0 80C0 42.2876 0 23.4315 11.7157 11.7157C23.4315 0 42.2876 0 80 0H414V736H0V80Z" fill="url(#paint0_linear_25_311)"/>
<path opacity="0.1" d="M0 80C0 42.2876 0 23.4315 11.7157 11.7157C23.4315 0 42.2876 0 80 0H334.981C372.693 0 391.55 0 403.265 11.7157C414.981 23.4315 414.981 42.2876 414.981 80V250H0V80Z" fill="#474242"/>
<path opacity="0.8" d="M43.1094 213.922H23.5625V210.148H43.1094V213.922ZM43.1094 223.648H23.5625V219.898H43.1094V223.648Z" fill="white"/>
<path opacity="0.5" d="M0 250H414V656C414 693.712 414 712.569 402.284 724.284C390.569 736 371.712 736 334 736H80C42.2876 736 23.4315 736 11.7157 724.284C0 712.569 0 693.712 0 656V250Z" fill="#C4C4C4"/>
<defs>
<linearGradient id="paint0_linear_25_311" x1="207" y1="0" x2="207" y2="736" gradientUnits="userSpaceOnUse">
<stop stop-color="#19655D"/>
<stop offset="1" stop-color="#42DCC3"/>
</linearGradient>
</defs>
</svg>
