<svg width="400" height="60" viewBox="0 0 400 60" fill="none" xmlns="http://www.w3.org/2000/svg">
<rect x="0.5" y="0.5" width="399" height="59" rx="29.5" fill="white" stroke="#F19D8F"/>
<path fill-rule="evenodd" clip-rule="evenodd" d="M35.3333 40.6667C36.2174 40.6667 37.0652 40.3155 37.6903 39.6904C38.3155 39.0652 38.6667 38.2174 38.6667 37.3333C38.6667 36.4493 38.3155 35.6014 37.6903 34.9763C37.0652 34.3512 36.2174 34 35.3333 34C34.4493 34 33.6014 34.3512 32.9763 34.9763C32.3512 35.6014 32 36.4493 32 37.3333C32 38.2174 32.3512 39.0652 32.9763 39.6904C33.6014 40.3155 34.4493 40.6667 35.3333 40.6667ZM35.3333 42C36.571 42 37.758 41.5083 38.6332 40.6332C39.5083 39.758 40 38.571 40 37.3333C40 36.0957 39.5083 34.9087 38.6332 34.0335C37.758 33.1583 36.571 32.6667 35.3333 32.6667C34.0956 32.6667 32.9087 33.1583 32.0335 34.0335C31.1583 34.9087 30.6667 36.0957 30.6667 37.3333C30.6667 38.571 31.1583 39.758 32.0335 40.6332C32.9087 41.5083 34.0956 42 35.3333 42Z" fill="#F19D8F"/>
<path fill-rule="evenodd" clip-rule="evenodd" d="M35.3333 35C35.5101 35 35.6797 35.0702 35.8047 35.1953C35.9298 35.3203 36 35.4899 36 35.6667V37.0573L36.4713 37.5287C36.5928 37.6544 36.66 37.8228 36.6584 37.9976C36.6569 38.1724 36.5868 38.3396 36.4632 38.4632C36.3396 38.5868 36.1724 38.6569 35.9976 38.6585C35.8228 38.66 35.6544 38.5928 35.5287 38.4713L34.6667 37.6093V35.6667C34.6667 35.4899 34.7369 35.3203 34.8619 35.1953C34.9869 35.0702 35.1565 35 35.3333 35Z" fill="#F19D8F"/>
<path fill-rule="evenodd" clip-rule="evenodd" d="M21.3333 29.3333H20V30.6667H21.3333V29.3333ZM20 28C19.6464 28 19.3072 28.1405 19.0572 28.3905C18.8071 28.6406 18.6667 28.9797 18.6667 29.3333V30.6667C18.6667 31.0203 18.8071 31.3594 19.0572 31.6095C19.3072 31.8595 19.6464 32 20 32H21.3333C21.6869 32 22.0261 31.8595 22.2761 31.6095C22.5262 31.3594 22.6667 31.0203 22.6667 30.6667V29.3333C22.6667 28.9797 22.5262 28.6406 22.2761 28.3905C22.0261 28.1405 21.6869 28 21.3333 28H20Z" fill="#F19D8F"/>
<path fill-rule="evenodd" clip-rule="evenodd" d="M26.6667 29.3333H25.3333V30.6667H26.6667V29.3333ZM25.3333 28C24.9797 28 24.6406 28.1405 24.3905 28.3905C24.1405 28.6406 24 28.9797 24 29.3333V30.6667C24 31.0203 24.1405 31.3594 24.3905 31.6095C24.6406 31.8595 24.9797 32 25.3333 32H26.6667C27.0203 32 27.3594 31.8595 27.6095 31.6095C27.8595 31.3594 28 31.0203 28 30.6667V29.3333C28 28.9797 27.8595 28.6406 27.6095 28.3905C27.3594 28.1405 27.0203 28 26.6667 28H25.3333Z" fill="#F19D8F"/>
<path fill-rule="evenodd" clip-rule="evenodd" d="M32 29.3333H30.6667V30.6667H32V29.3333ZM30.6667 28C30.3131 28 29.9739 28.1405 29.7239 28.3905C29.4738 28.6406 29.3333 28.9797 29.3333 29.3333V30.6667C29.3333 31.0203 29.4738 31.3594 29.7239 31.6095C29.9739 31.8595 30.3131 32 30.6667 32H32C32.3536 32 32.6928 31.8595 32.9428 31.6095C33.1929 31.3594 33.3333 31.0203 33.3333 30.6667V29.3333C33.3333 28.9797 33.1929 28.6406 32.9428 28.3905C32.6928 28.1405 32.3536 28 32 28H30.6667Z" fill="#F19D8F"/>
<path fill-rule="evenodd" clip-rule="evenodd" d="M21.3333 34.6667H20V36H21.3333V34.6667ZM20 33.3333C19.6464 33.3333 19.3072 33.4738 19.0572 33.7239C18.8071 33.9739 18.6667 34.313 18.6667 34.6667V36C18.6667 36.3536 18.8071 36.6928 19.0572 36.9428C19.3072 37.1929 19.6464 37.3333 20 37.3333H21.3333C21.6869 37.3333 22.0261 37.1929 22.2761 36.9428C22.5262 36.6928 22.6667 36.3536 22.6667 36V34.6667C22.6667 34.313 22.5262 33.9739 22.2761 33.7239C22.0261 33.4738 21.6869 33.3333 21.3333 33.3333H20Z" fill="#F19D8F"/>
<path fill-rule="evenodd" clip-rule="evenodd" d="M26.6667 34.6667H25.3333V36H26.6667V34.6667ZM25.3333 33.3333C24.9797 33.3333 24.6406 33.4738 24.3905 33.7239C24.1405 33.9739 24 34.313 24 34.6667V36C24 36.3536 24.1405 36.6928 24.3905 36.9428C24.6406 37.1929 24.9797 37.3333 25.3333 37.3333H26.6667C27.0203 37.3333 27.3594 37.1929 27.6095 36.9428C27.8595 36.6928 28 36.3536 28 36V34.6667C28 34.313 27.8595 33.9739 27.6095 33.7239C27.3594 33.4738 27.0203 33.3333 26.6667 33.3333H25.3333Z" fill="#F19D8F"/>
<path fill-rule="evenodd" clip-rule="evenodd" d="M17.3333 22C17.3333 21.8232 17.4036 21.6536 17.5286 21.5286C17.6536 21.4036 17.8232 21.3333 18 21.3333H21.3333V20H18C17.4696 20 16.9609 20.2107 16.5858 20.5858C16.2107 20.9609 16 21.4696 16 22V38C16 38.5304 16.2107 39.0391 16.5858 39.4142C16.9609 39.7893 17.4696 40 18 40H31.5033C31.219 39.5928 31.0018 39.1426 30.86 38.6667H18C17.8232 38.6667 17.6536 38.5964 17.5286 38.4714C17.4036 38.3464 17.3333 38.1768 17.3333 38V22ZM34.6667 32.7133C35.1089 32.6501 35.5578 32.6501 36 32.7133V22C36 21.4696 35.7893 20.9609 35.4142 20.5858C35.0391 20.2107 34.5304 20 34 20H32V21.3333H34C34.1768 21.3333 34.3464 21.4036 34.4714 21.5286C34.5964 21.6536 34.6667 21.8232 34.6667 22V32.7133ZM22.6667 21.3333H29.7087V20H22.6667V21.3333Z" fill="#F19D8F"/>
<path fill-rule="evenodd" clip-rule="evenodd" d="M30.6667 20H22.6667V22C22.6667 22.1768 22.5964 22.3464 22.4714 22.4714C22.3464 22.5964 22.1768 22.6667 22 22.6667C21.8232 22.6667 21.6536 22.5964 21.5286 22.4714C21.4036 22.3464 21.3333 22.1768 21.3333 22V20H18C17.6464 20 17.3072 20.1405 17.0572 20.3905C16.8071 20.6406 16.6667 20.9797 16.6667 21.3333V24.6667C16.6667 25.0203 16.8071 25.3594 17.0572 25.6095C17.3072 25.8595 17.6464 26 18 26H34C34.3536 26 34.6928 25.8595 34.9428 25.6095C35.1928 25.3594 35.3333 25.0203 35.3333 24.6667V21.3333C35.3333 20.9797 35.1928 20.6406 34.9428 20.3905C34.6928 20.1405 34.3536 20 34 20H32V22C32 22.1768 31.9298 22.3464 31.8047 22.4714C31.6797 22.5964 31.5101 22.6667 31.3333 22.6667C31.1565 22.6667 30.9869 22.5964 30.8619 22.4714C30.7369 22.3464 30.6667 22.1768 30.6667 22V20Z" fill="#F19D8F"/>
<path fill-rule="evenodd" clip-rule="evenodd" d="M36 26H17.3333V24.6667H36V26Z" fill="#F19D8F"/>
<path d="M20 18.6667C20 18.4899 20.0702 18.3203 20.1953 18.1953C20.3203 18.0702 20.4899 18 20.6667 18C20.8435 18 21.013 18.0702 21.1381 18.1953C21.2631 18.3203 21.3333 18.4899 21.3333 18.6667V21.3333C21.3333 21.5101 21.2631 21.6797 21.1381 21.8047C21.013 21.9298 20.8435 22 20.6667 22C20.4899 22 20.3203 21.9298 20.1953 21.8047C20.0702 21.6797 20 21.5101 20 21.3333V18.6667Z" fill="#F19D8F"/>
<path d="M29.3333 18.6667C29.3333 18.4899 29.4036 18.3203 29.5286 18.1953C29.6536 18.0702 29.8232 18 30 18C30.1768 18 30.3464 18.0702 30.4714 18.1953C30.5964 18.3203 30.6667 18.4899 30.6667 18.6667V21.3333C30.6667 21.5101 30.5964 21.6797 30.4714 21.8047C30.3464 21.9298 30.1768 22 30 22C29.8232 22 29.6536 21.9298 29.5286 21.8047C29.4036 21.6797 29.3333 21.5101 29.3333 21.3333V18.6667Z" fill="#F19D8F"/>
</svg>
