<svg width="400" height="60" viewBox="0 0 400 60" fill="none" xmlns="http://www.w3.org/2000/svg">
<rect x="0.5" y="0.5" width="399" height="59" rx="29.5" fill="white" stroke="#F19D8F"/>
<path d="M24 21C24.7417 21 25.4667 21.2199 26.0834 21.632C26.7001 22.044 27.1807 22.6297 27.4646 23.3149C27.7484 24.0002 27.8226 24.7542 27.6779 25.4816C27.5333 26.209 27.1761 26.8772 26.6517 27.4017C26.1272 27.9261 25.459 28.2833 24.7316 28.4279C24.0042 28.5726 23.2502 28.4984 22.5649 28.2145C21.8797 27.9307 21.294 27.4501 20.882 26.8334C20.4699 26.2167 20.25 25.4917 20.25 24.75C20.25 23.7554 20.6451 22.8016 21.3484 22.0983C22.0516 21.3951 23.0054 21 24 21ZM24 19.5C22.9617 19.5 21.9466 19.8079 21.0833 20.3848C20.2199 20.9617 19.547 21.7816 19.1496 22.7409C18.7523 23.7002 18.6483 24.7558 18.8509 25.7742C19.0535 26.7926 19.5535 27.7281 20.2877 28.4623C21.0219 29.1965 21.9574 29.6966 22.9758 29.8991C23.9942 30.1017 25.0498 29.9977 26.0091 29.6004C26.9684 29.203 27.7883 28.5301 28.3652 27.6667C28.9421 26.8034 29.25 25.7884 29.25 24.75C29.25 23.3576 28.6969 22.0223 27.7123 21.0377C26.7277 20.0531 25.3924 19.5 24 19.5Z" fill="#F19D8F"/>
<path d="M31.5 40.5H30V36.75C30 35.7554 29.6049 34.8016 28.9017 34.0983C28.1984 33.3951 27.2446 33 26.25 33H21.75C20.7554 33 19.8016 33.3951 19.0983 34.0983C18.3951 34.8016 18 35.7554 18 36.75V40.5H16.5V36.75C16.5 35.3576 17.0531 34.0223 18.0377 33.0377C19.0223 32.0531 20.3576 31.5 21.75 31.5H26.25C27.6424 31.5 28.9777 32.0531 29.9623 33.0377C30.9469 34.0223 31.5 35.3576 31.5 36.75V40.5Z" fill="#F19D8F"/>
<path d="M31.5 21H39V22.5H31.5V21Z" fill="#F19D8F"/>
<path d="M31.5 24.75H39V26.25H31.5V24.75Z" fill="#F19D8F"/>
<path d="M31.5 28.5H36.75V30H31.5V28.5Z" fill="#F19D8F"/>
</svg>
