<svg width="60" height="60" viewBox="0 0 60 60" fill="none" xmlns="http://www.w3.org/2000/svg">
<path d="M30 0C13.431 0 0 13.431 0 30C0 46.569 13.431 60 30 60C46.569 60 60 46.569 60 30C60 13.431 46.569 0 30 0ZM52.2581 30C52.2581 33.8625 51.2661 37.4964 49.5278 40.6657L33.871 28.1407V8.10121C44.302 9.94113 52.2581 19.0488 52.2581 30ZM26.129 51.8988C22.0331 51.1766 18.3278 49.3343 15.3278 46.6948L26.129 38.0528V51.8988ZM33.871 38.0528L44.6722 46.6935C41.6722 49.3331 37.9669 51.1754 33.871 51.8976V38.0528ZM26.129 8.10121V28.1407L10.4722 40.6657C8.73387 37.4964 7.74194 33.8625 7.74194 30C7.74194 19.0488 15.698 9.94113 26.129 8.10121Z" fill="white"/>
</svg>
