<svg width="60" height="42" viewBox="0 0 60 42" fill="none" xmlns="http://www.w3.org/2000/svg">
<path d="M7.51053 20.9999C5.85454 20.9999 4.47755 19.6499 4.70405 18.0074C6.10504 7.82695 14.5455 0 24.7499 0C32.2454 0 38.7899 4.22248 42.2908 10.4999H58.4997C58.8976 10.4999 59.2791 10.658 59.5604 10.9393C59.8417 11.2206 59.9997 11.6021 59.9997 11.9999C59.9997 12.3978 59.8417 12.7793 59.5604 13.0606C59.2791 13.3419 58.8976 13.4999 58.4997 13.4999H43.6708C44.1988 14.9339 44.5813 16.4429 44.7958 18.0074C45.0208 19.6499 43.6453 20.9999 41.9878 20.9999H7.51053Z" fill="white"/>
<path fill-rule="evenodd" clip-rule="evenodd" d="M0.24917 29.9233C-0.782824 27.0089 1.51966 23.9999 4.78064 23.9999H55.2194C58.4803 23.9999 60.7828 27.0089 59.7508 29.9233L57.6553 35.8453C56.3549 39.5203 52.7039 41.9998 48.5909 41.9998H11.4091C7.29613 41.9998 3.64515 39.5203 2.34466 35.8453L0.24917 29.9248V29.9233ZM18.0001 32.9998C18.0001 33.9944 17.605 34.9482 16.9017 35.6515C16.1985 36.3547 15.2446 36.7498 14.2501 36.7498C13.2555 36.7498 12.3017 36.3547 11.5985 35.6515C10.8952 34.9482 10.5001 33.9944 10.5001 32.9998C10.5001 32.0053 10.8952 31.0514 11.5985 30.3482C12.3017 29.6449 13.2555 29.2498 14.2501 29.2498C15.2446 29.2498 16.1985 29.6449 16.9017 30.3482C17.605 31.0514 18.0001 32.0053 18.0001 32.9998ZM30 36.7498C30.9946 36.7498 31.9484 36.3547 32.6516 35.6515C33.3549 34.9482 33.75 33.9944 33.75 32.9998C33.75 32.0053 33.3549 31.0514 32.6516 30.3482C31.9484 29.6449 30.9946 29.2498 30 29.2498C29.0054 29.2498 28.0516 29.6449 27.3484 30.3482C26.6451 31.0514 26.25 32.0053 26.25 32.9998C26.25 33.9944 26.6451 34.9482 27.3484 35.6515C28.0516 36.3547 29.0054 36.7498 30 36.7498ZM49.4999 32.9998C49.4999 33.9944 49.1048 34.9482 48.4015 35.6515C47.6983 36.3547 46.7445 36.7498 45.7499 36.7498C44.7554 36.7498 43.8015 36.3547 43.0983 35.6515C42.395 34.9482 41.9999 33.9944 41.9999 32.9998C41.9999 32.0053 42.395 31.0514 43.0983 30.3482C43.8015 29.6449 44.7554 29.2498 45.7499 29.2498C46.7445 29.2498 47.6983 29.6449 48.4015 30.3482C49.1048 31.0514 49.4999 32.0053 49.4999 32.9998Z" fill="white"/>
</svg>
