<svg width="60" height="42" viewBox="0 0 60 42" fill="none" xmlns="http://www.w3.org/2000/svg">
<path d="M56.7052 17.998L59.6333 23.2498C60.1018 24.043 60.1214 24.7405 59.6919 25.3422C59.2624 25.944 58.5011 26.2449 57.408 26.2449H53.3086C54.3236 27.0381 55.0654 27.9134 55.5339 28.8707H58.1107C58.6183 28.8707 59.0575 29.0007 59.4284 29.2605C59.7993 29.5204 59.9847 29.8281 59.9847 30.1837C59.9847 30.5392 59.7993 30.847 59.4284 31.1068C59.0575 31.3667 58.6183 31.4966 58.1107 31.4966H56.2367C56.2367 32.1804 56.061 32.9189 55.7096 33.7121L57.1737 34.2866C57.6422 34.478 57.935 34.7515 58.0521 35.1071C58.1693 35.4627 58.1009 35.7909 57.8472 36.0918C57.5934 36.3927 57.2225 36.591 56.7345 36.6867C56.2465 36.7825 55.7682 36.7483 55.2997 36.5842L54.1284 36.0918C53.7771 36.4201 53.3281 36.7756 52.7815 37.1586L54.1284 38.7177C54.4017 39.0459 54.4701 39.381 54.3334 39.7229C54.1968 40.0648 53.9039 40.3247 53.455 40.5024C53.006 40.6802 52.5277 40.7281 52.0202 40.646C51.5126 40.564 51.1222 40.3588 50.8489 40.0306L49.6777 38.6356C48.155 39.128 46.5933 39.3741 44.9926 39.3741V40.6871C44.9926 41.0427 44.8072 41.3504 44.4363 41.6102C44.0654 41.8701 43.6262 42 43.1186 42C42.6111 42 42.1718 41.8701 41.801 41.6102C41.4301 41.3504 41.2446 41.0427 41.2446 40.6871V39.3741H37.4966V40.6871C37.4966 41.0427 37.3111 41.3504 36.9402 41.6102C36.5693 41.8701 36.1301 42 35.6226 42C35.115 42 34.6758 41.8701 34.3049 41.6102C33.934 41.3504 33.7486 41.0427 33.7486 40.6871V39.3741H30.0005V40.6871C30.0005 41.0427 29.8151 41.3504 29.4442 41.6102C29.0733 41.8701 28.6341 42 28.1265 42C27.619 42 27.1798 41.8701 26.8089 41.6102C26.438 41.3504 26.2525 41.0427 26.2525 40.6871V39.3741H22.5045V40.6871C22.5045 41.0427 22.319 41.3504 21.9481 41.6102C21.5772 41.8701 21.138 42 20.6305 42C20.1229 42 19.6837 41.8701 19.3128 41.6102C18.9419 41.3504 18.7565 41.0427 18.7565 40.6871V39.3741H15.0084V40.6871C15.0084 41.0427 14.823 41.3504 14.4521 41.6102C14.0812 41.8701 13.642 42 13.1344 42C12.6269 42 12.1877 41.8701 11.8168 41.6102C11.4459 41.3504 11.2604 41.0427 11.2604 40.6871V38.8818C10.4405 38.663 9.71826 38.4168 9.09359 38.1433L6.57538 39.21C6.10688 39.3741 5.62862 39.4083 5.14059 39.3126C4.65257 39.2169 4.28167 39.0186 4.0279 38.7177C3.77413 38.4168 3.71556 38.0886 3.85221 37.733C3.98886 37.3774 4.27191 37.1039 4.70137 36.9124L6.16544 36.338C5.42365 35.6542 4.85754 34.9157 4.46712 34.1224H1.89035C1.38281 34.1224 0.943589 33.9925 0.57269 33.7327C0.201792 33.4728 0.0163431 33.1651 0.0163431 32.8095C0.0163431 32.4539 0.201792 32.1462 0.57269 31.8864C0.943589 31.6265 1.38281 31.4966 1.89035 31.4966H3.76437C3.76437 30.8128 3.94006 30.0742 4.29143 29.281L2.82736 28.7066C2.3979 28.5151 2.11485 28.2485 1.9782 27.9065C1.84155 27.5646 1.90012 27.2364 2.15389 26.9218C2.40766 26.6073 2.77856 26.4021 3.26658 26.3064C3.75461 26.2107 4.23287 26.2449 4.70137 26.409L5.93119 26.9013C6.1264 26.6825 6.38018 26.4637 6.69251 26.2449H3.00305C1.94892 26.2449 1.1388 25.944 0.57269 25.3422C0.00658264 24.7405 -0.139825 24.043 0.133469 23.2498L1.94892 17.998C2.14413 17.3689 2.63215 16.8356 3.41299 16.3979C4.19383 15.9603 5.03323 15.7415 5.93119 15.7415H14.2471C13.193 15.7415 12.3829 15.4474 11.8168 14.8593C11.2507 14.2712 11.1042 13.5669 11.3775 12.7463L13.193 7.53566C13.3882 6.87919 13.8762 6.33214 14.6571 5.8945C15.4379 5.45685 16.2773 5.23803 17.1753 5.23803H33.5143C34.2561 5.23803 34.9979 5.40215 35.7397 5.73038C36.4815 6.05861 37.0866 6.4689 37.5551 6.96125L54.2456 0.355585C55.1435 0 56.1001 -0.0888961 57.1151 0.0888961C58.1302 0.266688 58.9013 0.67014 59.4284 1.29925C59.9554 1.92836 60.0823 2.59166 59.809 3.28916C59.5357 3.98665 58.9501 4.52686 58.0521 4.9098L40.4247 11.8847L40.8932 12.7463C41.3617 13.5396 41.3813 14.2371 40.9518 14.8388C40.5223 15.4406 39.761 15.7415 38.6678 15.7415H52.2544C53.1524 15.7415 54.0308 15.9603 54.8898 16.3979C55.7487 16.8356 56.3538 17.3689 56.7052 17.998ZM15.0377 28.8707C14.0031 28.8707 13.1149 29.1306 12.3731 29.6503C11.6313 30.17 11.2604 30.7854 11.2604 31.4966C11.2604 32.2078 11.6313 32.8232 12.3731 33.3429C13.1149 33.8626 14.0031 34.1224 15.0377 34.1224C16.0723 34.1224 16.9508 33.8626 17.673 33.3429C18.3953 32.8232 18.7565 32.2078 18.7565 31.4966C18.7565 30.7854 18.3953 30.17 17.673 29.6503C16.9508 29.1306 16.0723 28.8707 15.0377 28.8707ZM30.0298 28.8707C28.9952 28.8707 28.107 29.1306 27.3652 29.6503C26.6234 30.17 26.2525 30.7854 26.2525 31.4966C26.2525 32.2078 26.6234 32.8232 27.3652 33.3429C28.107 33.8626 28.9952 34.1224 30.0298 34.1224C31.0644 34.1224 31.9429 33.8626 32.6651 33.3429C33.3874 32.8232 33.7486 32.2078 33.7486 31.4966C33.7486 30.7854 33.3874 30.17 32.6651 29.6503C31.9429 29.1306 31.0644 28.8707 30.0298 28.8707ZM45.0219 28.8707C43.9873 28.8707 43.0991 29.1306 42.3573 29.6503C41.6155 30.17 41.2446 30.7854 41.2446 31.4966C41.2446 32.2078 41.6155 32.8232 42.3573 33.3429C43.0991 33.8626 43.9873 34.1224 45.0219 34.1224C46.0565 34.1224 46.935 33.8626 47.6572 33.3429C48.3795 32.8232 48.7407 32.2078 48.7407 31.4966C48.7407 30.7854 48.3795 30.17 47.6572 29.6503C46.935 29.1306 46.0565 28.8707 45.0219 28.8707Z" fill="black"/>
</svg>
