<svg width="78" height="78" viewBox="0 0 78 78" fill="none" xmlns="http://www.w3.org/2000/svg">
<rect opacity="0.5" width="78" height="78" rx="20" fill="#122B28"/>
<path d="M48.6484 36.0859C48.6484 37.3633 48.3086 38.5 47.6289 39.4961C46.9609 40.4922 46.0527 41.2715 44.9043 41.834C46.2402 42.4082 47.2949 43.2461 48.0684 44.3477C48.8535 45.4492 49.2461 46.6973 49.2461 48.0918C49.2461 50.3066 48.4961 52.0703 46.9961 53.3828C45.5078 54.6953 43.5449 55.3516 41.1074 55.3516C38.6465 55.3516 36.6719 54.6953 35.1836 53.3828C33.707 52.0586 32.9688 50.2949 32.9688 48.0918C32.9688 46.709 33.3438 45.4609 34.0938 44.3477C34.8555 43.2344 35.9043 42.3906 37.2402 41.8164C36.1035 41.2539 35.207 40.4746 34.5508 39.4785C33.8945 38.4824 33.5664 37.3516 33.5664 36.0859C33.5664 33.9297 34.2578 32.2188 35.6406 30.9531C37.0234 29.6875 38.8457 29.0547 41.1074 29.0547C43.3574 29.0547 45.1738 29.6875 46.5566 30.9531C47.9512 32.2188 48.6484 33.9297 48.6484 36.0859ZM45.9941 48.0215C45.9941 46.5918 45.5371 45.4258 44.623 44.5234C43.7207 43.6211 42.5371 43.1699 41.0723 43.1699C39.6074 43.1699 38.4297 43.6152 37.5391 44.5059C36.6602 45.3965 36.2207 46.5684 36.2207 48.0215C36.2207 49.4746 36.6484 50.6172 37.5039 51.4492C38.3711 52.2812 39.5723 52.6973 41.1074 52.6973C42.6309 52.6973 43.8262 52.2812 44.6934 51.4492C45.5605 50.6055 45.9941 49.4629 45.9941 48.0215ZM41.1074 31.7266C39.8301 31.7266 38.793 32.125 37.9961 32.9219C37.2109 33.707 36.8184 34.7793 36.8184 36.1387C36.8184 37.4395 37.2051 38.4941 37.9785 39.3027C38.7637 40.0996 39.8066 40.498 41.1074 40.498C42.4082 40.498 43.4453 40.0996 44.2188 39.3027C45.0039 38.4941 45.3965 37.4395 45.3965 36.1387C45.3965 34.8379 44.9922 33.7773 44.1836 32.957C43.375 32.1367 42.3496 31.7266 41.1074 31.7266Z" fill="white"/>
</svg>
