<svg width="78" height="78" viewBox="0 0 78 78" fill="none" xmlns="http://www.w3.org/2000/svg">
<rect opacity="0.5" width="78" height="78" rx="20" fill="#173B38"/>
<path opacity="0.8" d="M41.7969 42.8789C41.4805 45.5859 40.4785 47.6777 38.791 49.1543C37.1152 50.6191 34.8828 51.3516 32.0938 51.3516C29.0703 51.3516 26.6445 50.2676 24.8164 48.0996C23 45.9316 22.0918 43.0312 22.0918 39.3984V36.9375C22.0918 34.5586 22.5137 32.4668 23.3574 30.6621C24.2129 28.8574 25.4199 27.4746 26.9785 26.5137C28.5371 25.541 30.3418 25.0547 32.3926 25.0547C35.1113 25.0547 37.291 25.8164 38.9316 27.3398C40.5723 28.8516 41.5273 30.9492 41.7969 33.6328H38.4043C38.1113 31.5938 37.4727 30.1172 36.4883 29.2031C35.5156 28.2891 34.1504 27.832 32.3926 27.832C30.2363 27.832 28.543 28.6289 27.3125 30.2227C26.0938 31.8164 25.4844 34.084 25.4844 37.0254V39.5039C25.4844 42.2812 26.0645 44.4902 27.2246 46.1309C28.3848 47.7715 30.0078 48.5918 32.0938 48.5918C33.9688 48.5918 35.4043 48.1699 36.4004 47.3262C37.4082 46.4707 38.0762 44.9883 38.4043 42.8789H41.7969Z" fill="white"/>
</svg>
