<svg width="78" height="78" viewBox="0 0 78 78" fill="none" xmlns="http://www.w3.org/2000/svg">
<rect opacity="0.5" width="78" height="78" rx="20" fill="#8F8A8A"/>
<path d="M49.8965 55H33.127V52.6621L41.9863 42.8184C43.2988 41.3301 44.2012 40.123 44.6934 39.1973C45.1973 38.2598 45.4492 37.293 45.4492 36.2969C45.4492 34.9609 45.0449 33.8652 44.2363 33.0098C43.4277 32.1543 42.3496 31.7266 41.002 31.7266C39.3848 31.7266 38.125 32.1895 37.2227 33.1152C36.332 34.0293 35.8867 35.3066 35.8867 36.9473H32.6348C32.6348 34.5918 33.3906 32.6875 34.9023 31.2344C36.4258 29.7812 38.459 29.0547 41.002 29.0547C43.3809 29.0547 45.2617 29.6816 46.6445 30.9355C48.0273 32.1777 48.7188 33.8359 48.7188 35.9102C48.7188 38.4297 47.1133 41.4297 43.9023 44.9102L37.0469 52.3457H49.8965V55Z" fill="#053A34"/>
</svg>
