<svg width="78" height="78" viewBox="0 0 78 78" fill="none" xmlns="http://www.w3.org/2000/svg">
<rect opacity="0.5" width="78" height="78" rx="20" fill="#94B2AE"/>
<path d="M48.1758 40.084C48.1758 43.8926 47.5254 46.7227 46.2246 48.5742C44.9238 50.4258 42.8906 51.3516 40.125 51.3516C37.3945 51.3516 35.373 50.4492 34.0605 48.6445C32.748 46.8281 32.0684 44.1211 32.0215 40.5234V36.1816C32.0215 32.4199 32.6719 29.625 33.9727 27.7969C35.2734 25.9688 37.3125 25.0547 40.0898 25.0547C42.8438 25.0547 44.8711 25.9395 46.1719 27.709C47.4727 29.4668 48.1406 32.1855 48.1758 35.8652V40.084ZM44.9238 35.6367C44.9238 32.8828 44.5371 30.8789 43.7637 29.625C42.9902 28.3594 41.7656 27.7266 40.0898 27.7266C38.4258 27.7266 37.2129 28.3535 36.4512 29.6074C35.6895 30.8613 35.2969 32.7891 35.2734 35.3906V40.5938C35.2734 43.3594 35.6719 45.4043 36.4688 46.7285C37.2773 48.041 38.4961 48.6973 40.125 48.6973C41.7305 48.6973 42.9199 48.0762 43.6934 46.834C44.4785 45.5918 44.8887 43.6348 44.9238 40.9629V35.6367Z" fill="#053A34"/>
</svg>
