<svg width="78" height="78" viewBox="0 0 78 78" fill="none" xmlns="http://www.w3.org/2000/svg">
<g opacity="0.5">
<path d="M0 20C0 8.9543 8.95431 0 20 0H58C69.0457 0 78 8.95431 78 20V58C78 69.0457 69.0457 78 58 78H20C8.9543 78 0 69.0457 0 58V20Z" fill="#173B38"/>
<path d="M0 20C0 8.9543 8.95431 0 20 0H58C69.0457 0 78 8.95431 78 20V58C78 69.0457 69.0457 78 58 78H20C8.9543 78 0 69.0457 0 58V20Z" fill="#173B38"/>
</g>
<path opacity="0.8" d="M49.1719 41.6543H33.0703V39H49.1719V41.6543Z" fill="white"/>
</svg>
