<svg width="78" height="78" viewBox="0 0 78 78" fill="none" xmlns="http://www.w3.org/2000/svg">
<g opacity="0.5">
<path d="M0 20C0 8.9543 8.95431 0 20 0H58C69.0457 0 78 8.95431 78 20V58C78 69.0457 69.0457 78 58 78H20C8.9543 78 0 69.0457 0 58V20Z" fill="#173B38"/>
<path d="M0 20C0 8.9543 8.95431 0 20 0H58C69.0457 0 78 8.95431 78 20V58C78 69.0457 69.0457 78 58 78H20C8.9543 78 0 69.0457 0 58V20Z" fill="#173B38"/>
</g>
<path opacity="0.8" d="M40.7773 33.2715H47.9141V36.3477H40.7773V44.4336H37.5078V36.3477H30.3711V33.2715H37.5078V25.8008H40.7773V33.2715Z" fill="white"/>
</svg>
