<svg width="78" height="78" viewBox="0 0 78 78" fill="none" xmlns="http://www.w3.org/2000/svg">
<rect opacity="0.5" width="78" height="78" rx="20" fill="#94B2AE"/>
<path opacity="0.8" d="M25.8457 30.3281C25.8457 28.793 26.332 27.5273 27.3047 26.5312C28.2891 25.5352 29.5488 25.0371 31.084 25.0371C32.6426 25.0371 33.9023 25.541 34.8633 26.5488C35.8359 27.5449 36.3223 28.8398 36.3223 30.4336V31.6816C36.3223 33.2285 35.8301 34.4941 34.8457 35.4785C33.873 36.4512 32.6309 36.9375 31.1191 36.9375C29.5957 36.9375 28.3359 36.4512 27.3398 35.4785C26.3438 34.4941 25.8457 33.1875 25.8457 31.5586V30.3281ZM28.2715 31.6816C28.2715 32.5957 28.5293 33.3516 29.0449 33.9492C29.5605 34.5352 30.252 34.8281 31.1191 34.8281C31.9512 34.8281 32.6191 34.541 33.123 33.9668C33.6387 33.3926 33.8965 32.6074 33.8965 31.6113V30.3281C33.8965 29.4141 33.6445 28.6582 33.1406 28.0605C32.6367 27.4629 31.9512 27.1641 31.084 27.1641C30.2168 27.1641 29.5312 27.4629 29.0273 28.0605C28.5234 28.6582 28.2715 29.4375 28.2715 30.3984V31.6816ZM38.3086 44.7246C38.3086 43.1895 38.7949 41.9297 39.7676 40.9453C40.752 39.9492 42.0117 39.4512 43.5469 39.4512C45.082 39.4512 46.3418 39.9434 47.3262 40.9277C48.3105 41.9121 48.8027 43.2188 48.8027 44.8477V46.0957C48.8027 47.6309 48.3105 48.8965 47.3262 49.8926C46.3535 50.877 45.1055 51.3691 43.582 51.3691C42.0586 51.3691 40.7988 50.8828 39.8027 49.9102C38.8066 48.9258 38.3086 47.6191 38.3086 45.9902V44.7246ZM40.7344 46.0957C40.7344 47.0215 40.9922 47.7832 41.5078 48.3809C42.0234 48.9668 42.7148 49.2598 43.582 49.2598C44.4258 49.2598 45.0996 48.9727 45.6035 48.3984C46.1074 47.8125 46.3594 47.0215 46.3594 46.0254V44.7246C46.3594 43.7988 46.1016 43.043 45.5859 42.457C45.082 41.8711 44.4023 41.5781 43.5469 41.5781C42.7148 41.5781 42.0352 41.8711 41.5078 42.457C40.9922 43.0312 40.7344 43.8105 40.7344 44.7949V46.0957ZM31.8574 49.0664L30.0117 47.9062L42.5098 27.9023L44.3555 29.0625L31.8574 49.0664Z" fill="white"/>
</svg>
