<svg width="78" height="78" viewBox="0 0 78 78" fill="none" xmlns="http://www.w3.org/2000/svg">
<rect opacity="0.5" width="78" height="78" rx="20" fill="#122B28"/>
<path d="M42.8887 29.3887V32.1484H42.291C39.7598 32.1953 37.7441 32.9453 36.2441 34.3984C34.7441 35.8516 33.877 37.8965 33.6426 40.5332C34.9902 38.9863 36.8301 38.2129 39.1621 38.2129C41.3887 38.2129 43.1641 38.998 44.4883 40.5684C45.8242 42.1387 46.4922 44.166 46.4922 46.6504C46.4922 49.2871 45.7715 51.3965 44.3301 52.9785C42.9004 54.5605 40.9785 55.3516 38.5645 55.3516C36.1152 55.3516 34.1289 54.4141 32.6055 52.5391C31.082 50.6523 30.3203 48.2266 30.3203 45.2617V44.0137C30.3203 39.3027 31.3223 35.7051 33.3262 33.2207C35.3418 30.7246 38.3359 29.4473 42.3086 29.3887H42.8887ZM38.6172 40.9199C37.5039 40.9199 36.4785 41.2539 35.541 41.9219C34.6035 42.5898 33.9531 43.4277 33.5898 44.4355V45.6309C33.5898 47.7402 34.0645 49.4395 35.0137 50.7285C35.9629 52.0176 37.1465 52.6621 38.5645 52.6621C40.0293 52.6621 41.1777 52.123 42.0098 51.0449C42.8535 49.9668 43.2754 48.5547 43.2754 46.8086C43.2754 45.0508 42.8477 43.6328 41.9922 42.5547C41.1484 41.4648 40.0234 40.9199 38.6172 40.9199Z" fill="white"/>
</svg>
