<svg width="78" height="78" viewBox="0 0 78 78" fill="none" xmlns="http://www.w3.org/2000/svg">
<g opacity="0.5">
<path d="M0 20C0 8.9543 8.95431 0 20 0H58C69.0457 0 78 8.95431 78 20V58C78 69.0457 69.0457 78 58 78H20C8.9543 78 0 69.0457 0 58V20Z" fill="#153B37"/>
<path d="M0 20C0 8.9543 8.95431 0 20 0H58C69.0457 0 78 8.95431 78 20V58C78 69.0457 69.0457 78 58 78H20C8.9543 78 0 69.0457 0 58V20Z" fill="#153B37"/>
</g>
<path opacity="0.8" d="M44.332 36.6914H29.6719V33.8613H44.332V36.6914ZM44.332 43.9863H29.6719V41.1738H44.332V43.9863Z" fill="white"/>
</svg>
