<svg width="78" height="78" viewBox="0 0 78 78" fill="none" xmlns="http://www.w3.org/2000/svg">
<rect opacity="0.5" width="78" height="78" rx="20" fill="#122B28"/>
<path d="M34.6211 42.168L35.9219 29.4062H49.0352V32.4121H38.6816L37.9082 39.3906C39.1621 38.6523 40.5859 38.2832 42.1797 38.2832C44.5117 38.2832 46.3633 39.0566 47.7344 40.6035C49.1055 42.1387 49.791 44.2188 49.791 46.8438C49.791 49.4805 49.0762 51.5605 47.6465 53.084C46.2285 54.5957 44.2422 55.3516 41.6875 55.3516C39.4258 55.3516 37.5801 54.7246 36.1504 53.4707C34.7207 52.2168 33.9062 50.4824 33.707 48.2676H36.7832C36.9824 49.7324 37.5039 50.8398 38.3477 51.5898C39.1914 52.3281 40.3047 52.6973 41.6875 52.6973C43.1992 52.6973 44.3828 52.1816 45.2383 51.1504C46.1055 50.1191 46.5391 48.6953 46.5391 46.8789C46.5391 45.168 46.0703 43.7969 45.1328 42.7656C44.207 41.7227 42.9707 41.2012 41.4238 41.2012C40.0059 41.2012 38.8926 41.5117 38.084 42.1328L37.2227 42.8359L34.6211 42.168Z" fill="white"/>
</svg>
