<svg width="78" height="78" viewBox="0 0 78 78" fill="none" xmlns="http://www.w3.org/2000/svg">
<rect opacity="0.5" width="78" height="78" rx="20" fill="#8F8A8A"/>
<path d="M42.5898 43.75C41.9102 44.5586 41.0957 45.209 40.1465 45.7012C39.209 46.1934 38.1777 46.4395 37.0527 46.4395C35.5762 46.4395 34.2871 46.0762 33.1855 45.3496C32.0957 44.623 31.252 43.6035 30.6543 42.291C30.0566 40.9668 29.7578 39.5078 29.7578 37.9141C29.7578 36.2031 30.0801 34.6621 30.7246 33.291C31.3809 31.9199 32.3066 30.8711 33.502 30.1445C34.6973 29.418 36.0918 29.0547 37.6855 29.0547C40.2168 29.0547 42.209 30.0039 43.6621 31.9023C45.127 33.7891 45.8594 36.3672 45.8594 39.6367V40.5859C45.8594 45.5664 44.875 49.2051 42.9062 51.502C40.9375 53.7871 37.9668 54.959 33.9941 55.0176H33.3613V52.2754H34.0469C36.7305 52.2285 38.793 51.5312 40.2344 50.1836C41.6758 48.8242 42.4609 46.6797 42.5898 43.75ZM37.5801 43.75C38.6699 43.75 39.6719 43.416 40.5859 42.748C41.5117 42.0801 42.1855 41.2539 42.6074 40.2695V38.9688C42.6074 36.8359 42.1445 35.1016 41.2188 33.7656C40.293 32.4297 39.1211 31.7617 37.7031 31.7617C36.2734 31.7617 35.125 32.3125 34.2578 33.4141C33.3906 34.5039 32.957 35.9453 32.957 37.7383C32.957 39.4844 33.373 40.9258 34.2051 42.0625C35.0488 43.1875 36.1738 43.75 37.5801 43.75Z" fill="#053A34"/>
</svg>
