<svg width="86" height="86" viewBox="0 0 86 86" fill="none" xmlns="http://www.w3.org/2000/svg">
<g filter="url(#filter0_d)">
<rect x="2" y="2" width="78" height="78" rx="20" fill="black" fill-opacity="0.2"/>
</g>
<path d="M47.8418 42.3301C47.8418 45.9395 47.1797 48.6816 45.8555 50.5566C44.5312 52.4199 42.5801 53.3516 40.002 53.3516C37.4707 53.3516 35.5312 52.4375 34.1836 50.6094C32.8359 48.7695 32.1445 46.0977 32.1094 42.5938V38.0059C32.1094 34.4082 32.7773 31.6836 34.1133 29.832C35.4492 27.9805 37.4004 27.0547 39.9668 27.0547C42.498 27.0547 44.4316 27.9512 45.7676 29.7441C47.1035 31.5254 47.7949 34.1562 47.8418 37.6367V42.3301ZM45.7324 37.7422C45.7324 34.8125 45.252 32.5977 44.291 31.0977C43.3418 29.5977 41.9004 28.8477 39.9668 28.8477C38.0684 28.8477 36.6387 29.5801 35.6777 31.0449C34.7168 32.5098 34.2246 34.6719 34.2012 37.5312V42.5586C34.2012 45.4766 34.6934 47.709 35.6777 49.2559C36.6738 50.8027 38.1152 51.5762 40.002 51.5762C41.877 51.5762 43.2949 50.8203 44.2559 49.3086C45.2285 47.7969 45.7207 45.582 45.7324 42.6641V37.7422Z" fill="white" fill-opacity="0.8"/>
<defs>
<filter id="filter0_d" x="0" y="0" width="86" height="86" filterUnits="userSpaceOnUse" color-interpolation-filters="sRGB">
<feFlood flood-opacity="0" result="BackgroundImageFix"/>
<feColorMatrix in="SourceAlpha" type="matrix" values="0 0 0 0 0 0 0 0 0 0 0 0 0 0 0 0 0 0 127 0"/>
<feOffset dx="2" dy="2"/>
<feGaussianBlur stdDeviation="2"/>
<feColorMatrix type="matrix" values="0 0 0 0 0 0 0 0 0 0 0 0 0 0 0 0 0 0 0.1 0"/>
<feBlend mode="normal" in2="BackgroundImageFix" result="effect1_dropShadow"/>
<feBlend mode="normal" in="SourceGraphic" in2="effect1_dropShadow" result="shape"/>
</filter>
</defs>
</svg>
