<svg width="86" height="86" viewBox="0 0 86 86" fill="none" xmlns="http://www.w3.org/2000/svg">
<g filter="url(#filter0_d)">
<rect x="2" y="2" width="78" height="78" rx="20" fill="#C9E8CD"/>
</g>
<path d="M38.084 39.0605H40.2637C41.4707 39.0605 42.5254 38.8496 43.4277 38.4277C44.3301 37.9941 45.0156 37.4082 45.4844 36.6699C45.9648 35.9199 46.2051 35.0586 46.2051 34.0859C46.2051 32.4453 45.7422 31.1621 44.8164 30.2363C43.8906 29.3105 42.5605 28.8477 40.8262 28.8477C39.1855 28.8477 37.8379 29.334 36.7832 30.3066C35.7402 31.2676 35.2188 32.5391 35.2188 34.1211H33.1094C33.1094 32.7969 33.4434 31.5898 34.1113 30.5C34.7793 29.3984 35.7051 28.5488 36.8887 27.9512C38.0723 27.3535 39.3848 27.0547 40.8262 27.0547C43.1465 27.0547 44.9746 27.6875 46.3105 28.9531C47.6465 30.2188 48.3145 31.9531 48.3145 34.1562C48.3145 35.3867 47.9219 36.5234 47.1367 37.5664C46.3633 38.5977 45.2969 39.3711 43.9375 39.8867C45.5312 40.332 46.7383 41.0996 47.5586 42.1895C48.3789 43.2676 48.7891 44.5566 48.7891 46.0566C48.7891 48.248 48.0742 50.0117 46.6445 51.3477C45.2148 52.6836 43.3047 53.3516 40.9141 53.3516C39.3906 53.3516 37.9902 53.0469 36.7129 52.4375C35.4473 51.8281 34.4629 50.9785 33.7598 49.8887C33.0684 48.7871 32.7227 47.5098 32.7227 46.0566H34.832C34.832 47.6855 35.4004 49.0156 36.5371 50.0469C37.6738 51.0664 39.1328 51.5762 40.9141 51.5762C42.7305 51.5762 44.1426 51.1133 45.1504 50.1875C46.1699 49.25 46.6797 47.8965 46.6797 46.127C46.6797 44.416 46.1289 43.1094 45.0273 42.207C43.9375 41.3047 42.3262 40.8535 40.1934 40.8535H38.084V39.0605Z" fill="#3E5F36"/>
<defs>
<filter id="filter0_d" x="0" y="0" width="86" height="86" filterUnits="userSpaceOnUse" color-interpolation-filters="sRGB">
<feFlood flood-opacity="0" result="BackgroundImageFix"/>
<feColorMatrix in="SourceAlpha" type="matrix" values="0 0 0 0 0 0 0 0 0 0 0 0 0 0 0 0 0 0 127 0"/>
<feOffset dx="2" dy="2"/>
<feGaussianBlur stdDeviation="2"/>
<feColorMatrix type="matrix" values="0 0 0 0 0 0 0 0 0 0 0 0 0 0 0 0 0 0 0.1 0"/>
<feBlend mode="normal" in2="BackgroundImageFix" result="effect1_dropShadow"/>
<feBlend mode="normal" in="SourceGraphic" in2="effect1_dropShadow" result="shape"/>
</filter>
</defs>
</svg>
