<svg width="86" height="86" viewBox="0 0 86 86" fill="none" xmlns="http://www.w3.org/2000/svg">
<g filter="url(#filter0_d)">
<rect x="2" y="2" width="78" height="78" rx="20" fill="#C9E8CD"/>
</g>
<path d="M34.832 40.8867L36.0801 28.4062H48.877V30.3574H37.8906L36.9941 39.0059C38.3652 38.0684 39.9707 37.5996 41.8105 37.5996C44.1191 37.5996 45.959 38.3496 47.3301 39.8496C48.7012 41.3496 49.3867 43.3477 49.3867 45.8438C49.3867 48.5391 48.7188 50.6309 47.3828 52.1191C46.0469 53.6074 44.166 54.3516 41.7402 54.3516C39.5137 54.3516 37.709 53.7305 36.3262 52.4883C34.9434 51.2461 34.1523 49.5059 33.9531 47.2676H35.9746C36.1738 49.0137 36.7656 50.3379 37.75 51.2402C38.7344 52.1309 40.0645 52.5762 41.7402 52.5762C43.5684 52.5762 44.9453 51.9961 45.8711 50.8359C46.8086 49.6758 47.2773 48.0234 47.2773 45.8789C47.2773 44.0039 46.7559 42.4746 45.7129 41.291C44.6699 40.1074 43.2461 39.5156 41.4414 39.5156C40.4453 39.5156 39.5781 39.6445 38.8398 39.9023C38.1016 40.1484 37.3223 40.6348 36.502 41.3613L34.832 40.8867Z" fill="#3E5F36"/>
<defs>
<filter id="filter0_d" x="0" y="0" width="86" height="86" filterUnits="userSpaceOnUse" color-interpolation-filters="sRGB">
<feFlood flood-opacity="0" result="BackgroundImageFix"/>
<feColorMatrix in="SourceAlpha" type="matrix" values="0 0 0 0 0 0 0 0 0 0 0 0 0 0 0 0 0 0 127 0"/>
<feOffset dx="2" dy="2"/>
<feGaussianBlur stdDeviation="2"/>
<feColorMatrix type="matrix" values="0 0 0 0 0 0 0 0 0 0 0 0 0 0 0 0 0 0 0.1 0"/>
<feBlend mode="normal" in2="BackgroundImageFix" result="effect1_dropShadow"/>
<feBlend mode="normal" in="SourceGraphic" in2="effect1_dropShadow" result="shape"/>
</filter>
</defs>
</svg>
