<svg width="86" height="86" viewBox="0 0 86 86" fill="none" xmlns="http://www.w3.org/2000/svg">
<g filter="url(#filter0_d)">
<rect x="2" y="2" width="78" height="78" rx="20" fill="#C9E8CD"/>
</g>
<path d="M47.4902 33.998C47.4902 35.3223 47.1035 36.5117 46.3301 37.5664C45.5566 38.6094 44.5371 39.377 43.2715 39.8691C44.748 40.373 45.9316 41.1875 46.8223 42.3125C47.7129 43.4375 48.1582 44.7383 48.1582 46.2148C48.1582 48.4062 47.4141 50.1465 45.9258 51.4355C44.4375 52.7129 42.4688 53.3516 40.0195 53.3516C37.5469 53.3516 35.5664 52.7129 34.0781 51.4355C32.6016 50.1582 31.8633 48.418 31.8633 46.2148C31.8633 44.7617 32.291 43.4668 33.1465 42.3301C34.002 41.1934 35.1738 40.373 36.6621 39.8691C35.3965 39.377 34.3887 38.6094 33.6387 37.5664C32.8887 36.5117 32.5137 35.3223 32.5137 33.998C32.5137 31.877 33.1934 30.1895 34.5527 28.9355C35.9238 27.6816 37.7344 27.0547 39.9844 27.0547C42.2344 27.0547 44.0449 27.6875 45.416 28.9531C46.7988 30.2188 47.4902 31.9004 47.4902 33.998ZM46.0488 46.2324C46.0488 44.6387 45.4805 43.332 44.3438 42.3125C43.207 41.2812 41.7539 40.7656 39.9844 40.7656C38.2148 40.7656 36.7676 41.2695 35.6426 42.2773C34.5176 43.2852 33.9551 44.6035 33.9551 46.2324C33.9551 47.8613 34.5 49.1621 35.5898 50.1348C36.6797 51.0957 38.1562 51.5762 40.0195 51.5762C41.8359 51.5762 43.2949 51.0957 44.3965 50.1348C45.498 49.1738 46.0488 47.873 46.0488 46.2324ZM45.3809 33.9805C45.3809 32.5156 44.8711 31.2969 43.8516 30.3242C42.8438 29.3398 41.5547 28.8477 39.9844 28.8477C38.3906 28.8477 37.0957 29.3223 36.0996 30.2715C35.1152 31.209 34.623 32.4453 34.623 33.9805C34.623 35.4805 35.1152 36.6875 36.0996 37.6016C37.0957 38.5156 38.3965 38.9727 40.002 38.9727C41.584 38.9727 42.873 38.5156 43.8691 37.6016C44.877 36.6758 45.3809 35.4688 45.3809 33.9805Z" fill="#3E5F36"/>
<defs>
<filter id="filter0_d" x="0" y="0" width="86" height="86" filterUnits="userSpaceOnUse" color-interpolation-filters="sRGB">
<feFlood flood-opacity="0" result="BackgroundImageFix"/>
<feColorMatrix in="SourceAlpha" type="matrix" values="0 0 0 0 0 0 0 0 0 0 0 0 0 0 0 0 0 0 127 0"/>
<feOffset dx="2" dy="2"/>
<feGaussianBlur stdDeviation="2"/>
<feColorMatrix type="matrix" values="0 0 0 0 0 0 0 0 0 0 0 0 0 0 0 0 0 0 0.1 0"/>
<feBlend mode="normal" in2="BackgroundImageFix" result="effect1_dropShadow"/>
<feBlend mode="normal" in="SourceGraphic" in2="effect1_dropShadow" result="shape"/>
</filter>
</defs>
</svg>
