<svg width="86" height="86" viewBox="0 0 86 86" fill="none" xmlns="http://www.w3.org/2000/svg">
<g filter="url(#filter0_d)">
<rect x="2" y="2" width="78" height="78" rx="20" fill="black" fill-opacity="0.2"/>
</g>
<path d="M45.5391 41.1523C44.7891 42.2539 43.8574 43.1094 42.7441 43.7188C41.6309 44.3164 40.4238 44.6152 39.123 44.6152C37.6699 44.6152 36.3867 44.2402 35.2734 43.4902C34.1602 42.7402 33.2988 41.7031 32.6895 40.3789C32.0801 39.0547 31.7754 37.6074 31.7754 36.0371C31.7754 34.3496 32.0977 32.8145 32.7422 31.4316C33.3984 30.0488 34.3066 28.9766 35.4668 28.2148C36.6387 27.4414 37.9863 27.0547 39.5098 27.0547C42.0762 27.0547 44.0742 27.957 45.5039 29.7617C46.9336 31.5547 47.6484 34.1035 47.6484 37.4082V39.3066C47.6484 43.9238 46.6641 47.3926 44.6953 49.7129C42.7266 52.0332 39.7207 53.1934 35.6777 53.1934H35.291L35.3086 51.3652H36.0469C39.1055 51.3184 41.4316 50.4512 43.0254 48.7637C44.6191 47.0762 45.457 44.5391 45.5391 41.1523ZM39.3867 42.8047C40.793 42.8047 42.0527 42.3887 43.166 41.5566C44.291 40.7129 45.0879 39.623 45.5566 38.2871V37.0742C45.5566 34.4727 45.0117 32.457 43.9219 31.0273C42.8438 29.5859 41.3848 28.8652 39.5449 28.8652C37.8809 28.8652 36.5156 29.5391 35.4492 30.8867C34.3828 32.2227 33.8496 33.9102 33.8496 35.9492C33.8496 37.9062 34.3594 39.541 35.3789 40.8535C36.4102 42.1543 37.7461 42.8047 39.3867 42.8047Z" fill="white" fill-opacity="0.8"/>
<defs>
<filter id="filter0_d" x="0" y="0" width="86" height="86" filterUnits="userSpaceOnUse" color-interpolation-filters="sRGB">
<feFlood flood-opacity="0" result="BackgroundImageFix"/>
<feColorMatrix in="SourceAlpha" type="matrix" values="0 0 0 0 0 0 0 0 0 0 0 0 0 0 0 0 0 0 127 0"/>
<feOffset dx="2" dy="2"/>
<feGaussianBlur stdDeviation="2"/>
<feColorMatrix type="matrix" values="0 0 0 0 0 0 0 0 0 0 0 0 0 0 0 0 0 0 0.1 0"/>
<feBlend mode="normal" in2="BackgroundImageFix" result="effect1_dropShadow"/>
<feBlend mode="normal" in="SourceGraphic" in2="effect1_dropShadow" result="shape"/>
</filter>
</defs>
</svg>
