<svg width="86" height="86" viewBox="0 0 86 86" fill="none" xmlns="http://www.w3.org/2000/svg">
<g filter="url(#filter0_d)">
<rect x="2" y="2" width="78" height="78" rx="20" fill="#D5EDDF"/>
</g>
<path d="M44.8695 44.8695L55.3227 44.8695C56.6055 44.8695 57.6454 43.8296 57.6459 42.5464L57.6459 40.2232C57.6459 38.9404 56.606 37.9005 55.3227 37.9L44.8695 37.9L44.8695 27.4468C44.8695 26.1641 43.8296 25.1242 42.5463 25.1237L40.2232 25.1237C38.9404 25.1237 37.9005 26.1635 37.9 27.4468L37.9 37.9L27.4468 37.9C26.1641 37.9 25.1242 38.9399 25.1236 40.2232L25.1236 42.5464C25.1236 43.8291 26.1641 44.8695 27.4468 44.8695L37.9 44.8695L37.9 55.3227C37.9 56.6055 38.9404 57.6459 40.2232 57.6459H42.5464C43.8291 57.6459 44.869 56.606 44.8695 55.3227L44.8695 44.8695Z" fill="#2B5438"/>
<defs>
<filter id="filter0_d" x="0" y="0" width="86" height="86" filterUnits="userSpaceOnUse" color-interpolation-filters="sRGB">
<feFlood flood-opacity="0" result="BackgroundImageFix"/>
<feColorMatrix in="SourceAlpha" type="matrix" values="0 0 0 0 0 0 0 0 0 0 0 0 0 0 0 0 0 0 127 0"/>
<feOffset dx="2" dy="2"/>
<feGaussianBlur stdDeviation="2"/>
<feColorMatrix type="matrix" values="0 0 0 0 0 0 0 0 0 0 0 0 0 0 0 0 0 0 0.1 0"/>
<feBlend mode="normal" in2="BackgroundImageFix" result="effect1_dropShadow"/>
<feBlend mode="normal" in="SourceGraphic" in2="effect1_dropShadow" result="shape"/>
</filter>
</defs>
</svg>
