<svg width="60" height="40" viewBox="0 0 60 40" fill="none" xmlns="http://www.w3.org/2000/svg">
<path opacity="0.5" d="M0 0H40C49.4281 0 54.1421 0 57.0711 2.92893C60 5.85786 60 10.5719 60 20C60 29.4281 60 34.1421 57.0711 37.0711C54.1421 40 49.4281 40 40 40H0V0Z" fill="white"/>
<g opacity="0.5">
<path d="M38.6666 27.1267C38.6072 27.0036 38.5113 26.9018 38.3921 26.835C38.2729 26.7682 38.136 26.7397 38 26.7533H37.4333C35.7744 26.7081 34.1799 26.1016 32.9103 25.0328C31.6408 23.9641 30.7713 22.4964 30.4439 20.8695C30.1165 19.2426 30.3506 17.5527 31.1079 16.0761C31.8652 14.5995 33.101 13.4234 34.6133 12.74C34.7426 12.6857 34.8515 12.5921 34.9245 12.4724C34.9975 12.3528 35.0309 12.2131 35.02 12.0733C35.0154 11.939 34.9703 11.8091 34.8905 11.7009C34.8108 11.5926 34.7002 11.511 34.5733 11.4667C33.5042 11.0815 32.3763 10.8853 31.24 10.8867C28.5666 10.8867 26.0027 11.9487 24.1123 13.839C22.222 15.7294 21.16 18.2933 21.16 20.9667C21.16 23.64 22.222 26.2039 24.1123 28.0943C26.0027 29.9847 28.5666 31.0467 31.24 31.0467C32.6186 31.055 33.9837 30.7738 35.2469 30.2215C36.5101 29.6691 37.6433 28.8578 38.5733 27.84C38.6555 27.7425 38.7079 27.6234 38.7245 27.497C38.741 27.3706 38.7209 27.242 38.6666 27.1267ZM31.26 29.7467C28.9402 29.7467 26.7155 28.8251 25.0751 27.1848C23.4348 25.5445 22.5133 23.3198 22.5133 21C22.5133 18.6802 23.4348 16.4555 25.0751 14.8152C26.7155 13.1749 28.9402 12.2533 31.26 12.2533C31.7066 12.251 32.1527 12.2867 32.5933 12.36C31.1652 13.3605 30.0722 14.7685 29.457 16.4001C28.8418 18.0316 28.733 19.8108 29.1449 21.5051C29.5568 23.1995 30.4701 24.7301 31.7657 25.8972C33.0612 27.0642 34.6786 27.8134 36.4066 28.0467C34.9226 29.1598 33.1151 29.7568 31.26 29.7467Z" fill="black"/>
</g>
</svg>
