<svg width="86" height="86" viewBox="0 0 86 86" fill="none" xmlns="http://www.w3.org/2000/svg">
<g filter="url(#filter0_d)">
<rect x="2" y="2" width="78" height="78" rx="20" fill="url(#paint0_radial)"/>
</g>
<path d="M52.1429 44.1429H29.8571C28.8317 44.1429 28 44.9745 28 46V47.8571C28 48.8826 28.8317 49.7143 29.8571 49.7143H52.1429C53.1683 49.7143 54 48.8826 54 47.8571V46C54 44.9745 53.1683 44.1429 52.1429 44.1429ZM52.1429 33H29.8571C28.8317 33 28 33.8317 28 34.8571V36.7143C28 37.7398 28.8317 38.5714 29.8571 38.5714H52.1429C53.1683 38.5714 54 37.7398 54 36.7143V34.8571C54 33.8317 53.1683 33 52.1429 33Z" fill="#D5EDDF"/>
<defs>
<filter id="filter0_d" x="0" y="0" width="86" height="86" filterUnits="userSpaceOnUse" color-interpolation-filters="sRGB">
<feFlood flood-opacity="0" result="BackgroundImageFix"/>
<feColorMatrix in="SourceAlpha" type="matrix" values="0 0 0 0 0 0 0 0 0 0 0 0 0 0 0 0 0 0 127 0"/>
<feOffset dx="2" dy="2"/>
<feGaussianBlur stdDeviation="2"/>
<feColorMatrix type="matrix" values="0 0 0 0 0 0 0 0 0 0 0 0 0 0 0 0 0 0 0.1 0"/>
<feBlend mode="normal" in2="BackgroundImageFix" result="effect1_dropShadow"/>
<feBlend mode="normal" in="SourceGraphic" in2="effect1_dropShadow" result="shape"/>
</filter>
<radialGradient id="paint0_radial" cx="0" cy="0" r="1" gradientUnits="userSpaceOnUse" gradientTransform="translate(19.5 15) rotate(51.2711) scale(64.7341)">
<stop stop-color="#96D875"/>
<stop offset="1" stop-color="#4DB17D"/>
</radialGradient>
</defs>
</svg>
