<svg width="414" height="736" viewBox="0 0 414 736" fill="none" xmlns="http://www.w3.org/2000/svg">
<rect width="414" height="736" rx="40" fill="url(#paint0_radial)"/>
<path opacity="0.5" d="M0 230H414V656C414 693.712 414 712.569 402.284 724.284C390.569 736 371.712 736 334 736H80C42.2876 736 23.4315 736 11.7157 724.284C0 712.569 0 693.712 0 656V230Z" fill="url(#paint1_linear)"/>
<path opacity="0.2" fill-rule="evenodd" clip-rule="evenodd" d="M0 651.653V498.762L414 259.739V412.63L0 651.653Z" fill="white"/>
<path opacity="0.3" fill-rule="evenodd" clip-rule="evenodd" d="M0 571.653V418.762L414 179.739V332.63L0 571.653Z" fill="white"/>
<path opacity="0.1" fill-rule="evenodd" clip-rule="evenodd" d="M0 481.653V328.762L414 89.7394V242.63L0 481.653Z" fill="white"/>
<path opacity="0.1" d="M0 80C0 42.2876 0 23.4315 11.7157 11.7157C23.4315 0 42.2876 0 80 0H334C371.712 0 390.569 0 402.284 11.7157C414 23.4315 414 42.2876 414 80V230H0V80Z" fill="black"/>
<path opacity="0.8" d="M37.332 188.891H22.6719V186.061H37.332V188.891ZM37.332 196.186H22.6719V193.374H37.332V196.186Z" fill="white"/>
<defs>
<radialGradient id="paint0_radial" cx="0" cy="0" r="1" gradientUnits="userSpaceOnUse" gradientTransform="translate(33.5 30.5) rotate(62.2934) scale(796.869 448.239)">
<stop stop-color="#96D875"/>
<stop offset="0.602146" stop-color="#4DB17C"/>
</radialGradient>
<linearGradient id="paint1_linear" x1="389" y1="241" x2="23" y2="724" gradientUnits="userSpaceOnUse">
<stop offset="0.0237154" stop-color="white"/>
<stop offset="1" stop-color="#96D875"/>
</linearGradient>
</defs>
</svg>
