<svg width="360" height="61" viewBox="0 0 360 61" fill="none" xmlns="http://www.w3.org/2000/svg">
<rect width="360" height="61" rx="20" fill="#F9BA17"/>
<path d="M160.034 35.434V37H150.89V24.4H159.782V25.966H152.69V29.836H159.008V31.366H152.69V35.434H160.034ZM173.785 24.4V37H172.309L164.749 27.604V37H162.949V24.4H164.425L171.985 33.796V24.4H173.785ZM180.058 25.966H175.738V24.4H186.16V25.966H181.84V37H180.058V25.966ZM197.264 35.434V37H188.12V24.4H197.012V25.966H189.92V29.836H196.238V31.366H189.92V35.434H197.264ZM208.603 37L205.885 33.13C205.549 33.154 205.285 33.166 205.093 33.166H201.979V37H200.179V24.4H205.093C206.725 24.4 208.009 24.79 208.945 25.57C209.881 26.35 210.349 27.424 210.349 28.792C210.349 29.764 210.109 30.592 209.629 31.276C209.149 31.96 208.465 32.458 207.577 32.77L210.565 37H208.603ZM205.039 31.636C206.179 31.636 207.049 31.39 207.649 30.898C208.249 30.406 208.549 29.704 208.549 28.792C208.549 27.88 208.249 27.184 207.649 26.704C207.049 26.212 206.179 25.966 205.039 25.966H201.979V31.636H205.039Z" fill="#2B3151"/>
</svg>
